<svg width="175" height="31" viewBox="0 0 175 31" fill="none" xmlns="http://www.w3.org/2000/svg">
<path d="M1.125 24H24.125" stroke="#BEF264" stroke-width="2" stroke-linecap="round" stroke-linejoin="round"/>
<path d="M6.13264 18.9909L3.42208 18.5267L1.125 13.8845L2.3884 13.2462C2.70902 13.0829 3.06305 12.9979 3.42208 12.9979C3.78111 12.9979 4.13515 13.0829 4.45577 13.2462L4.65102 13.3623C4.97165 13.5255 5.32568 13.6106 5.68471 13.6106C6.04374 13.6106 6.39777 13.5255 6.7184 13.3623L8.01625 12.724L4.57063 5.76063L5.60431 5.23838C5.9864 5.04844 6.41322 4.96957 6.83711 5.01056C7.26099 5.05154 7.66526 5.21078 8.00477 5.47049L12.6219 8.95215C12.9626 9.2141 13.3689 9.37464 13.7951 9.41565C14.2213 9.45667 14.6503 9.37652 15.0338 9.18426L19.8462 6.79352C20.4612 6.48027 21.1697 6.40993 21.8332 6.59622L22.9473 6.92118C23.1775 6.98577 23.3905 7.10138 23.571 7.2596C23.7514 7.41782 23.8947 7.61468 23.9904 7.83586C24.0861 8.05704 24.1318 8.29699 24.1242 8.53827C24.1166 8.77954 24.0559 9.01608 23.9465 9.23068L23.5101 10.1127C23.2459 10.6466 22.821 11.0876 22.2811 11.3661L7.53386 18.7588C7.10023 18.9759 6.60983 19.049 6.13264 18.9677V18.9909Z" stroke="white" stroke-width="2" stroke-linecap="round" stroke-linejoin="round"/>
<path d="M29.9391 9.48757V6.31818H44.8716V9.48757H39.3052V24.5H35.5055V9.48757H29.9391ZM45.3437 24.5V10.8636H49.0103V13.2429H49.1523C49.4009 12.3965 49.8181 11.7573 50.4041 11.3253C50.99 10.8873 51.6647 10.6683 52.4282 10.6683C52.6176 10.6683 52.8218 10.6802 53.0408 10.7038C53.2598 10.7275 53.4521 10.7601 53.6179 10.8015V14.1573C53.4403 14.104 53.1947 14.0567 52.881 14.0153C52.5673 13.9738 52.2803 13.9531 52.0198 13.9531C51.4635 13.9531 50.9663 14.0745 50.5284 14.3171C50.0963 14.5539 49.753 14.8853 49.4985 15.3114C49.25 15.7376 49.1257 16.2288 49.1257 16.7852V24.5H45.3437ZM58.5711 24.7575C57.701 24.7575 56.9257 24.6065 56.2451 24.3047C55.5644 23.9969 55.0258 23.5442 54.6293 22.9464C54.2387 22.3427 54.0434 21.591 54.0434 20.6914C54.0434 19.9338 54.1825 19.2976 54.4606 18.7827C54.7388 18.2678 55.1176 17.8535 55.597 17.5398C56.0764 17.2261 56.6209 16.9893 57.2305 16.8295C57.846 16.6697 58.4912 16.5573 59.1659 16.4922C59.959 16.4093 60.5982 16.3324 61.0835 16.2614C61.5688 16.1844 61.921 16.072 62.14 15.924C62.3589 15.776 62.4684 15.5571 62.4684 15.267V15.2138C62.4684 14.6515 62.2909 14.2165 61.9358 13.9087C61.5866 13.601 61.0894 13.4471 60.4443 13.4471C59.7637 13.4471 59.2221 13.598 58.8196 13.8999C58.4172 14.1958 58.1508 14.5687 58.0206 15.0185L54.5228 14.7344C54.7003 13.9058 55.0495 13.1896 55.5704 12.5859C56.0912 11.9763 56.7629 11.5088 57.5856 11.1832C58.4142 10.8518 59.373 10.6861 60.462 10.6861C61.2196 10.6861 61.9446 10.7749 62.6371 10.9524C63.3355 11.13 63.954 11.4052 64.4926 11.7781C65.0371 12.1509 65.4662 12.6303 65.7799 13.2163C66.0936 13.7963 66.2504 14.4917 66.2504 15.3026V24.5H62.6638V22.609H62.5572C62.3382 23.0352 62.0453 23.411 61.6783 23.7365C61.3114 24.0561 60.8704 24.3076 60.3555 24.4911C59.8406 24.6687 59.2458 24.7575 58.5711 24.7575ZM59.6542 22.1474C60.2105 22.1474 60.7017 22.0379 61.1279 21.8189C61.554 21.594 61.8884 21.2921 62.1311 20.9134C62.3737 20.5346 62.4951 20.1055 62.4951 19.6261V18.179C62.3767 18.2559 62.2139 18.3269 62.0068 18.392C61.8056 18.4512 61.5777 18.5075 61.3232 18.5607C61.0687 18.6081 60.8142 18.6525 60.5597 18.6939C60.3052 18.7294 60.0744 18.762 59.8672 18.7915C59.4233 18.8567 59.0357 18.9602 58.7042 19.1023C58.3728 19.2443 58.1153 19.4367 57.9319 19.6793C57.7484 19.9161 57.6566 20.212 57.6566 20.5671C57.6566 21.082 57.8431 21.4756 58.216 21.7479C58.5947 22.0142 59.0741 22.1474 59.6542 22.1474ZM80.9093 10.8636L76.1419 24.5H71.8805L67.1131 10.8636H71.1082L73.9402 20.6204H74.0823L76.9054 10.8636H80.9093ZM88.1197 24.7663C86.717 24.7663 85.5096 24.4822 84.4976 23.9141C83.4914 23.34 82.7161 22.5291 82.1716 21.4815C81.6271 20.428 81.3548 19.1822 81.3548 17.744C81.3548 16.3413 81.6271 15.1102 82.1716 14.0508C82.7161 12.9914 83.4825 12.1657 84.4709 11.5739C85.4652 10.982 86.6312 10.6861 87.9688 10.6861C88.8684 10.6861 89.7059 10.8311 90.4812 11.1211C91.2625 11.4052 91.9431 11.8343 92.5231 12.4084C93.1091 12.9825 93.5648 13.7045 93.8903 14.5746C94.2158 15.4387 94.3786 16.4508 94.3786 17.6108V18.6495H82.864V16.3058H90.8186C90.8186 15.7612 90.7002 15.2789 90.4635 14.8587C90.2267 14.4384 89.8982 14.11 89.478 13.8732C89.0637 13.6306 88.5814 13.5092 88.0309 13.5092C87.4568 13.5092 86.9478 13.6424 86.504 13.9087C86.066 14.1692 85.7227 14.5213 85.4741 14.9652C85.2255 15.4032 85.0983 15.8915 85.0924 16.43V18.6584C85.0924 19.3331 85.2167 19.9161 85.4652 20.4073C85.7197 20.8986 86.0778 21.2773 86.5395 21.5437C87.0011 21.81 87.5486 21.9432 88.1819 21.9432C88.6021 21.9432 88.9868 21.884 89.336 21.7656C89.6852 21.6473 89.9841 21.4697 90.2326 21.233C90.4812 20.9962 90.6706 20.7062 90.8008 20.3629L94.2987 20.5938C94.1211 21.4342 93.7571 22.1681 93.2067 22.7955C92.6622 23.4169 91.9579 23.9022 91.0938 24.2514C90.2356 24.5947 89.2442 24.7663 88.1197 24.7663ZM100.129 6.31818V24.5H96.3466V6.31818H100.129ZM109.675 24.5V6.31818H116.849C118.228 6.31818 119.403 6.58156 120.373 7.10831C121.344 7.62914 122.084 8.35417 122.593 9.28338C123.108 10.2067 123.365 11.272 123.365 12.4794C123.365 13.6868 123.105 14.7521 122.584 15.6754C122.063 16.5987 121.308 17.3178 120.32 17.8327C119.338 18.3477 118.148 18.6051 116.751 18.6051H112.179V15.5245H116.13C116.869 15.5245 117.479 15.3973 117.958 15.1428C118.444 14.8823 118.805 14.5243 119.042 14.0685C119.284 13.6069 119.406 13.0772 119.406 12.4794C119.406 11.8757 119.284 11.349 119.042 10.8991C118.805 10.4434 118.444 10.0913 117.958 9.84268C117.473 9.58819 116.858 9.46094 116.112 9.46094H113.52V24.5H109.675ZM129.073 6.31818V24.5H125.291V6.31818H129.073ZM135.491 24.7575C134.621 24.7575 133.846 24.6065 133.165 24.3047C132.484 23.9969 131.946 23.5442 131.549 22.9464C131.159 22.3427 130.963 21.591 130.963 20.6914C130.963 19.9338 131.102 19.2976 131.381 18.7827C131.659 18.2678 132.038 17.8535 132.517 17.5398C132.996 17.2261 133.541 16.9893 134.15 16.8295C134.766 16.6697 135.411 16.5573 136.086 16.4922C136.879 16.4093 137.518 16.3324 138.003 16.2614C138.489 16.1844 138.841 16.072 139.06 15.924C139.279 15.776 139.388 15.5571 139.388 15.267V15.2138C139.388 14.6515 139.211 14.2165 138.856 13.9087C138.506 13.601 138.009 13.4471 137.364 13.4471C136.684 13.4471 136.142 13.598 135.74 13.8999C135.337 14.1958 135.071 14.5687 134.941 15.0185L131.443 14.7344C131.62 13.9058 131.969 13.1896 132.49 12.5859C133.011 11.9763 133.683 11.5088 134.506 11.1832C135.334 10.8518 136.293 10.6861 137.382 10.6861C138.14 10.6861 138.865 10.7749 139.557 10.9524C140.255 11.13 140.874 11.4052 141.413 11.7781C141.957 12.1509 142.386 12.6303 142.7 13.2163C143.013 13.7963 143.17 14.4917 143.17 15.3026V24.5H139.584V22.609H139.477C139.258 23.0352 138.965 23.411 138.598 23.7365C138.231 24.0561 137.79 24.3076 137.275 24.4911C136.761 24.6687 136.166 24.7575 135.491 24.7575ZM136.574 22.1474C137.13 22.1474 137.622 22.0379 138.048 21.8189C138.474 21.594 138.808 21.2921 139.051 20.9134C139.294 20.5346 139.415 20.1055 139.415 19.6261V18.179C139.297 18.2559 139.134 18.3269 138.927 18.392C138.725 18.4512 138.498 18.5075 138.243 18.5607C137.989 18.6081 137.734 18.6525 137.48 18.6939C137.225 18.7294 136.994 18.762 136.787 18.7915C136.343 18.8567 135.956 18.9602 135.624 19.1023C135.293 19.2443 135.035 19.4367 134.852 19.6793C134.668 19.9161 134.577 20.212 134.577 20.5671C134.577 21.082 134.763 21.4756 135.136 21.7479C135.515 22.0142 135.994 22.1474 136.574 22.1474ZM149.386 16.6165V24.5H145.604V10.8636H149.209V13.2695H149.369C149.67 12.4764 150.177 11.8491 150.887 11.3874C151.597 10.9199 152.458 10.6861 153.47 10.6861C154.417 10.6861 155.243 10.8932 155.947 11.3075C156.651 11.7218 157.199 12.3137 157.59 13.0831C157.98 13.8466 158.175 14.758 158.175 15.8175V24.5H154.394V16.4922C154.399 15.6577 154.186 15.0066 153.754 14.5391C153.322 14.0656 152.727 13.8288 151.97 13.8288C151.461 13.8288 151.011 13.9383 150.62 14.1573C150.236 14.3763 149.934 14.6959 149.715 15.1161C149.502 15.5304 149.392 16.0305 149.386 16.6165ZM164.438 16.6165V24.5H160.656V10.8636H164.261V13.2695H164.42C164.722 12.4764 165.228 11.8491 165.939 11.3874C166.649 10.9199 167.51 10.6861 168.522 10.6861C169.469 10.6861 170.295 10.8932 170.999 11.3075C171.703 11.7218 172.251 12.3137 172.641 13.0831C173.032 13.8466 173.227 14.758 173.227 15.8175V24.5H169.445V16.4922C169.451 15.6577 169.238 15.0066 168.806 14.5391C168.374 14.0656 167.779 13.8288 167.022 13.8288C166.513 13.8288 166.063 13.9383 165.672 14.1573C165.287 14.3763 164.986 14.6959 164.767 15.1161C164.554 15.5304 164.444 16.0305 164.438 16.6165Z" fill="white"/>
<path d="M104.869 24.7308C104.283 24.7308 103.78 24.5237 103.36 24.1094C102.945 23.6892 102.738 23.1861 102.738 22.6001C102.738 22.0201 102.945 21.523 103.36 21.1087C103.78 20.6944 104.283 20.4872 104.869 20.4872C105.437 20.4872 105.934 20.6944 106.36 21.1087C106.786 21.523 106.999 22.0201 106.999 22.6001C106.999 22.9908 106.899 23.3488 106.698 23.6744C106.502 23.994 106.245 24.2514 105.925 24.4467C105.606 24.6361 105.253 24.7308 104.869 24.7308Z" fill="#BEF264"/>
</svg>